<svg width="50" height="50" viewBox="0 0 50 50" fill="none" xmlns="http://www.w3.org/2000/svg">
<path d="M45.988 0.0614471H4.01214C1.83027 0.0614471 0.0615234 1.8302 0.0615234 4.01206V45.9879C0.0615234 48.1698 1.83027 49.9385 4.01214 49.9385H45.988C48.1699 49.9385 49.9386 48.1698 49.9386 45.9879V4.01206C49.9386 1.8302 48.1699 0.0614471 45.988 0.0614471Z" fill="#000F16" stroke="#373435" stroke-width="0.755687" stroke-miterlimit="22.9256"/>
<path fill-rule="evenodd" clip-rule="evenodd" d="M36.2638 23.6091L37.0588 24.173C37.2264 24.3212 37.4245 24.5176 37.6003 24.7729C38.33 25.8322 38.5603 26.9396 38.2281 28.2516C38.168 28.4897 38.0313 28.9091 37.9174 29.0974C37.5698 29.6736 37.8452 29.3208 37.452 29.5649C36.7369 31.1227 33.9084 31.9397 31.9496 30.7987C31.3252 30.4351 28.5284 27.7162 28.207 27.0634C28.6406 26.2787 30.5663 24.4411 31.2994 23.8167C32.458 22.8296 34.6733 22.8266 36.2638 23.6096V23.6091ZM23.3483 27.2559C22.9994 27.4514 21.375 29.0858 21.0217 29.4489C20.2873 30.2039 19.748 31.0987 18.3113 31.332C15.4819 31.7918 13.206 29.8786 13.3392 27.164C13.5438 23.0075 18.0896 21.6663 21.2581 24.6418C21.8464 25.194 23.1292 26.5696 23.3479 27.2559H23.3483ZM36.2427 34.6238C38.4954 33.7274 38.862 33.4756 40.232 32.0144C42.1577 29.9598 42.4963 25.1902 40.2754 22.4897C39.7086 21.8003 39.315 21.6439 38.8044 21.0788C36.2737 19.1059 31.5594 18.4909 28.3411 21.8236L25.8602 24.2451C23.5559 22.8622 22.1154 18.8364 16.5288 19.6185C9.44233 20.6108 8.29535 28.5481 11.6916 32.4747C14.084 35.2405 19.2477 35.7876 22.078 33.3686C22.8898 32.6745 25.1644 30.2117 25.8159 29.8335C28.8636 31.8185 29.3802 35.9083 36.2432 34.6238H36.2427Z" fill="#000F16"/>
<path fill-rule="evenodd" clip-rule="evenodd" d="M5.04857 23.8545C4.37173 20.616 6.2179 21.6031 6.91494 21.8218C7.08598 22.8347 7.0271 23.0032 6.81911 23.9052C5.86981 24.0475 5.95275 24.1076 5.04857 23.8545ZM7.62917 46.6523L7.59393 14.074C6.71984 13.6911 6.01377 13.6017 5.08381 13.0409C3.50795 12.0903 4.02278 12.8355 3.04297 11.4719L3.04598 41.3295C3.04383 43.1925 3.08379 44.2427 4.09455 45.2548C5.12378 46.2853 5.74604 46.7761 7.6296 46.6519L7.62917 46.6523Z" fill="#92FE32"/>
<path fill-rule="evenodd" clip-rule="evenodd" d="M42.1371 33.6685C43.6257 32.6277 44.3799 35.2573 43.3253 35.883C42.5166 36.363 41.8303 35.9161 41.624 35.268C41.5355 34.99 41.5127 34.6247 41.5913 34.3355C41.7882 33.6135 41.7937 33.9079 42.1367 33.6681L42.1371 33.6685ZM37.4521 29.5645C37.8449 29.3204 37.5694 29.6732 37.9175 29.0969C38.0309 28.9091 38.1676 28.4893 38.2282 28.2512C38.5608 26.9392 38.33 25.8322 37.6003 24.7724C37.4246 24.5172 37.2265 24.3208 37.0589 24.1725L36.2638 23.6087C34.6734 22.8257 32.458 22.8287 31.2995 23.8158C30.5663 24.4403 28.6406 26.2783 28.207 27.0625C28.5285 27.7153 31.3252 30.4343 31.9497 30.7979C33.9088 31.9388 36.737 31.1219 37.4521 29.5641V29.5645ZM23.3484 27.2559C23.1292 26.5701 21.8464 25.194 21.2585 24.6418C18.0901 21.6663 13.5443 23.0075 13.3397 27.164C13.206 29.8782 15.482 31.7918 18.3118 31.332C19.748 31.0987 20.2873 30.204 21.0222 29.4489C21.3754 29.0858 22.9999 27.4515 23.3488 27.2559H23.3484ZM16.1992 40.7932C18.9672 40.6901 18.7201 43.6054 17.069 44.0481C16.4416 44.2161 16.1644 44.0004 15.5146 43.8044C15.0677 41.6841 15.0135 42.2595 16.1992 40.7932ZM10.5472 36.7781C11.4269 36.6415 12.1429 36.6092 12.5816 37.3364C13.6998 39.189 11.0969 41.0317 10.3031 39.2363C9.92626 38.3841 10.3633 37.3785 10.5472 36.7781ZM7.62886 46.6527L32.9544 46.6523C35.1852 46.7653 41.9652 46.8642 43.7761 46.3141L44.3236 45.9385C45.0645 45.7511 44.3327 46.1676 45.1101 45.4899C45.6361 45.0313 46.0611 44.2612 46.297 43.4585C46.8677 41.5195 46.4079 17.4561 46.5394 14.1699L45.0404 14.6043L43.814 14.9202C42.4869 15.5197 35.948 16.2988 33.6458 16.4939C31.2999 16.4952 28.8074 16.781 26.2152 16.7479C25.4851 16.7677 21.8026 16.747 21.6028 16.6864C18.8228 16.4505 16.5301 16.2696 13.989 15.8308C12.0187 15.4909 8.63016 14.9039 7.59448 14.0745L7.62972 46.6527H7.62886ZM31.3648 40.7782C31.0829 40.9948 30.29 41.8306 29.3183 40.9041C28.7189 40.3321 28.8955 39.4288 29.0708 38.8413C29.7627 38.5998 30.3235 38.3811 31.1851 38.8276C31.195 38.8723 31.238 38.9217 31.2518 38.9475C31.6454 39.6935 31.7477 39.978 31.3643 40.7782H31.3648ZM36.2423 34.6238C29.3794 35.9083 28.8628 31.8185 25.8151 29.8335C25.1636 30.2117 22.889 32.675 22.0772 33.3686C19.2469 35.7876 14.0832 35.2401 11.6908 32.4747C8.29453 28.5482 9.44151 20.6108 16.528 19.6186C22.1146 18.8364 23.5555 22.8622 25.8594 24.2452L28.3403 21.8236C31.5586 18.4909 36.2729 19.1059 38.8036 21.0788C39.3137 21.6439 39.7074 21.8004 40.2746 22.4897C42.4955 25.1902 42.1564 29.9599 40.2312 32.0145C38.8616 33.476 38.4946 33.7274 36.2419 34.6238H36.2423ZM38.367 41.2737C38.1212 42.0592 38.1109 41.8985 37.229 42.0794C35.6918 41.9836 35.3601 40.0528 36.3476 39.2174C37.6145 38.146 38.9003 39.5749 38.367 41.2737ZM41.7791 17.3805C42.0254 17.5197 42.3081 17.7255 42.4255 18.0569C42.5647 18.451 42.5333 18.3504 42.4659 18.7045C42.3872 19.1158 42.4242 18.9503 42.2295 19.1648C42.0047 19.8682 41.9583 19.6383 41.1599 19.8871L40.3717 19.3629C40.1165 18.2614 40.2398 18.1175 40.746 17.3959L41.7791 17.3805Z" fill="url(#paint0_linear_22902_1278)"/>
<path fill-rule="evenodd" clip-rule="evenodd" d="M3.05328 9.56045L3.04297 11.4724C4.02278 12.8355 3.50795 12.0908 5.08381 13.0414C6.01334 13.6022 6.71984 13.6916 7.59393 14.0745L7.61198 8.14746C5.73788 8.46719 4.41256 8.85267 3.05328 9.56088V9.56045Z" fill="#C8FA96"/>
<path fill-rule="evenodd" clip-rule="evenodd" d="M16.1994 40.7932C15.0133 42.2595 15.0675 41.6841 15.5148 43.8044C16.1646 44.0004 16.4418 44.2161 17.0692 44.0481C18.7207 43.6054 18.9674 40.6901 16.1994 40.7932Z" fill="#79F93B"/>
<path fill-rule="evenodd" clip-rule="evenodd" d="M10.5476 36.7781C10.3632 37.3785 9.92658 38.3841 10.3035 39.2362C11.0976 41.0317 13.7006 39.189 12.582 37.3364C12.1432 36.6092 11.4272 36.6415 10.5476 36.7781Z" fill="#CAFD33"/>
<path fill-rule="evenodd" clip-rule="evenodd" d="M31.365 40.7777C31.7483 39.9776 31.6465 39.6931 31.2524 38.947C31.2387 38.9213 31.1957 38.8718 31.1858 38.8271C30.3242 38.3802 29.7633 38.5994 29.0715 38.8409C28.8961 39.4284 28.7195 40.3317 29.319 40.9037C30.2902 41.8302 31.0831 40.9943 31.3654 40.7777H31.365Z" fill="#05BC4C"/>
<path fill-rule="evenodd" clip-rule="evenodd" d="M37.2289 42.0794C38.1107 41.8981 38.1214 42.0592 38.3668 41.2737C38.133 40.0919 38.549 40.1185 37.7587 39.2113L36.5387 39.2247C36.3638 40.0184 35.1188 40.8203 37.2289 42.0794Z" fill="#CAFD33"/>
<path fill-rule="evenodd" clip-rule="evenodd" d="M42.1371 33.6685C41.7942 33.9083 41.7886 33.6135 41.5918 34.3359C41.5131 34.6247 41.5359 34.9904 41.6244 35.2685C41.8303 35.9165 42.517 36.3634 43.3258 35.8834C44.3804 35.2577 43.6262 32.6281 42.1375 33.669L42.1371 33.6685Z" fill="#56EC47"/>
<path fill-rule="evenodd" clip-rule="evenodd" d="M19.3989 15.5876L19.7341 15.937C20.3598 16.0646 21.4823 16.4406 21.8717 15.5498C22.5124 14.0822 19.7788 12.4359 19.3994 15.5876H19.3989Z" fill="#D3FF46"/>
<path fill-rule="evenodd" clip-rule="evenodd" d="M5.04863 23.8545C5.95281 24.1076 5.86987 24.0475 6.81917 23.9052C7.02716 23.0032 7.08604 22.8347 6.915 21.8218C6.21796 21.6031 4.37222 20.616 5.04863 23.8545Z" fill="#CAFD33"/>
<path fill-rule="evenodd" clip-rule="evenodd" d="M23.5188 11.2695L23.2842 12.4105C23.8411 13.0349 23.8549 12.9485 24.4754 13.3671C25.1802 13.1256 25.3147 12.9107 25.8145 12.4694C25.6482 10.398 25.044 10.7323 23.5188 11.2691V11.2695Z" fill="#2CD154"/>
<path fill-rule="evenodd" clip-rule="evenodd" d="M12.9224 11.6847L13.0977 10.4045C11.836 10.0499 12.6675 9.62319 10.9056 9.99148C10.7646 10.5613 10.4724 11.6804 11.1544 11.9575C11.1897 11.9717 11.2472 12.0001 11.2872 12.0138C12.2834 12.3589 12.6349 11.851 12.9219 11.6842L12.9224 11.6847Z" fill="#D3FF46"/>
<path fill-rule="evenodd" clip-rule="evenodd" d="M42.2294 19.1647C42.424 18.9507 42.3871 19.1158 42.4657 18.7045C42.5336 18.3504 42.5646 18.4505 42.4253 18.0569C42.308 17.7255 42.0252 17.5197 41.779 17.3805L40.7609 17.79C40.4107 19.3599 41.2822 20.2451 42.1705 19.1201L42.2294 19.1652V19.1647Z" fill="#56EC47"/>
<path fill-rule="evenodd" clip-rule="evenodd" d="M23.5189 11.2695C25.0441 10.7328 25.6483 10.3984 25.8146 12.4698C25.3144 12.9111 25.1803 13.126 24.4755 13.3675C23.855 12.949 23.8412 13.0349 23.2843 12.4109L23.5189 11.27V11.2695ZM7.61204 8.14702L7.59399 14.074C8.62967 14.9034 12.0182 15.4904 13.9885 15.8304C16.5296 16.2691 18.8223 16.4501 21.6023 16.686C21.8021 16.7462 25.4846 16.7672 26.2147 16.7474C28.8069 16.7805 31.2994 16.4943 33.6454 16.4935C35.9475 16.2984 42.4864 15.5192 43.8135 14.9198L45.04 14.6039L46.5389 14.1694L46.9566 14.0396C46.7636 13.291 46.9566 12.0491 46.6816 11.5179L45.9192 11.649C45.3249 12.0581 40.7619 12.4178 39.6003 12.3877C37.2827 12.3276 35.2363 12.0508 33.0669 11.5063C32.7781 11.4302 31.6153 11.1101 30.9466 10.9184C30.0484 10.661 29.7639 10.5489 28.932 10.2476C27.6234 9.77403 26.0239 9.21837 24.6526 8.84965L22.0922 8.23125C19.3994 7.76541 17.7256 7.39068 14.9017 7.45041C13.6495 7.47706 12.3065 7.54539 11.0977 7.68935C10.1385 7.80366 8.55876 8.11136 7.61161 8.14702H7.61204ZM19.7338 15.9369L19.3986 15.5876C19.778 12.4363 22.512 14.0822 21.8709 15.5498C21.482 16.4406 20.359 16.0646 19.7333 15.9369H19.7338ZM12.9219 11.6847C12.6349 11.8514 12.2829 12.3594 11.2872 12.0143C11.2472 12.0005 11.1896 11.9722 11.1544 11.958C10.472 11.6808 10.7642 10.5617 10.9056 9.9919C12.6671 9.62362 11.836 10.0503 13.0977 10.4049L12.9224 11.6851L12.9219 11.6847Z" fill="url(#paint1_linear_22902_1278)"/>
<path fill-rule="evenodd" clip-rule="evenodd" d="M31.0648 7.63606C32.1357 7.35888 32.2453 6.79635 31.6329 6.0761C30.6991 6.05504 30.9346 5.96995 30.3626 6.48306C30.2616 7.24672 30.265 7.49511 31.0648 7.63606Z" fill="#B1FD31"/>
<path fill-rule="evenodd" clip-rule="evenodd" d="M37.229 42.0794C35.1194 40.8203 36.3643 40.0184 36.5388 39.2247L37.7589 39.2113C38.5496 40.1185 38.1332 40.0919 38.3669 41.2737C38.9002 39.5753 37.6145 38.146 36.3476 39.2173C35.3596 40.0528 35.6918 41.9836 37.229 42.0794Z" fill="#EDFD31"/>
<path fill-rule="evenodd" clip-rule="evenodd" d="M44.0279 6.74822C44.1848 5.00089 42.5002 5.09501 42.636 6.74521C43.278 7.01466 43.4482 7.00091 44.0279 6.74822Z" fill="#B1FD31"/>
<path fill-rule="evenodd" clip-rule="evenodd" d="M35.6104 9.1638C35.8214 10.3666 37.6568 10.2695 37.6745 8.96741C37.6942 7.52391 35.3874 7.89263 35.6104 9.1638Z" fill="#E3FF17"/>
<path fill-rule="evenodd" clip-rule="evenodd" d="M42.2293 19.1647L42.1704 19.1196C41.2822 20.2451 40.4106 19.3594 40.7609 17.7896L41.7789 17.38L40.7458 17.3955C40.2396 18.117 40.1158 18.261 40.3715 19.3624L41.1597 19.8867C41.9581 19.6379 42.0046 19.8682 42.2293 19.1643V19.1647Z" fill="#79F93B"/>
<defs>
<linearGradient id="paint0_linear_22902_1278" x1="7.59405" y1="30.4072" x2="46.591" y2="30.4072" gradientUnits="userSpaceOnUse">
<stop stop-color="#25E845"/>
<stop offset="1" stop-color="#06BE4F"/>
</linearGradient>
<linearGradient id="paint1_linear_22902_1278" x1="7.59399" y1="12.0998" x2="46.957" y2="12.0998" gradientUnits="userSpaceOnUse">
<stop stop-color="#6FF95A"/>
<stop offset="1" stop-color="#6AF13C"/>
</linearGradient>
</defs>
</svg>
