<svg width="142" height="48" viewBox="0 0 142 48" fill="none" xmlns="http://www.w3.org/2000/svg">
<path fill-rule="evenodd" clip-rule="evenodd" d="M34.6382 21.9072C35.573 24.6451 33.1559 22.1255 36.7598 27.1048C37.6697 28.362 38.9361 30.1819 39.8442 31.1173C39.6297 31.8188 38.0635 33.8166 37.553 34.5298C36.8644 35.4913 35.7701 36.9592 35.2564 38.0288L34.8425 40.6311L33.426 40.5843C33.5499 42.0736 33.6747 45.2121 33.4283 46.6357L39.8708 46.5999C39.7155 45.7756 39.6138 41.3831 39.9551 41.3406C40.7948 40.8774 42.7754 37.2731 43.7721 36.3293C44.5568 36.9048 46.8903 40.932 47.7432 41.5553C47.9444 40.8011 47.8158 43.5555 47.8151 43.7654C47.8121 44.8695 47.9479 45.5448 47.6733 46.6357L53.9464 46.611C53.8199 45.109 53.697 41.9888 53.9463 40.5572L53.2428 40.617C52.809 40.1825 53.011 40.5653 52.8709 39.8884C52.823 39.657 52.8287 39.2981 52.7712 39.0221C52.4704 37.5792 48.7229 32.9304 47.7634 31.1743C48.257 30.2043 49.5757 28.7959 50.2819 27.7874C50.9162 26.8818 52.3552 25.2662 52.7343 24.3433C52.2693 24.1826 52.5189 24.2675 52.6177 23.5153C52.9342 21.1086 52.3648 22.3615 53.9057 21.6402C53.7959 20.2202 53.7089 17.394 53.9464 16.1132L47.7674 16.121L47.721 20.9103L43.7719 26.1677C42.5631 25.2007 41.3347 22.4974 39.9548 21.3831L39.9609 21.1409C39.586 20.9042 39.7283 17.0661 39.8705 16.1491L33.4556 16.0671L33.4845 21.8081C33.6055 21.8039 35.3054 21.6015 34.6381 21.9072H34.6382ZM68.3618 30.243L63.3777 30.2428L63.3893 21.9972L70.247 21.9912C71.3957 22.0492 71.0314 22.5992 71.0279 25.018C71.0194 30.7212 71.5373 30.2429 68.3619 30.243H68.3618ZM63.1055 46.7583C63.4519 46.4313 63.2225 46.8122 63.3384 46.2829L63.335 36.2378C65.289 36.2973 70.899 36.4585 72.5045 36.0697C78.3669 34.6504 77.1614 27.4559 77.0558 21.9729C76.9981 18.9681 75.3628 17.3393 73.4494 16.4232C72.8395 16.6302 73.0312 16.3419 71.9079 16.203C70.5833 16.0391 67.3647 16.1685 65.8181 16.1313C63.2203 16.0687 59.7852 16.3611 57.3397 16.0867L57.389 46.6357L63.2735 46.6107L63.1056 46.7583H63.1055Z" fill="#EDF7E2"/>
<path fill-rule="evenodd" clip-rule="evenodd" d="M112.519 24.9504L113.006 24.9426C112.912 26.5892 115.709 31.9798 115.643 33.4041L118.345 33.4427L118.35 16.1308L115.402 16.1187C115.455 17.5295 115.422 18.9881 115.421 20.4045C115.421 21.0801 115.42 21.7564 115.424 22.432C115.426 22.9433 115.519 23.8797 115.303 24.2826C114.901 23.7531 112.706 17.3272 112.502 16.1321L109.755 16.1546L109.738 33.427L112.721 33.4449C112.466 31.3472 113.008 26.5053 112.52 24.9504H112.519ZM105.422 33.2577L107.71 33.1934L107.766 16.4728C107.05 16.1858 106.244 16.4114 105.397 16.271L105.422 33.2577ZM120.349 33.2367L122.715 33.3308L122.708 16.3139L120.266 16.2781L120.349 33.2366L120.349 33.2367ZM82.4042 16.1831C82.5636 19.1727 82.1977 31.8153 82.5636 33.2879C83.3272 33.1998 84.1373 33.152 84.8785 33.3624L84.9011 16.2076C84.0021 16.4089 83.3063 16.3932 82.4042 16.1831ZM127.153 20.4034C127.159 23.6183 127.03 30.9245 127.202 33.2152L129.496 33.1868C129.725 30.8459 129.164 19.6825 129.744 18.7005L132.215 18.7138L132.256 16.1828C130.823 16.5198 126.169 16.3884 124.442 16.3374L124.291 18.6901L126.932 18.7273C127.229 19.1347 127.153 19.8992 127.153 20.4033L127.153 20.4034ZM99.8553 33.2275L99.8557 26.0966L103.092 25.977L103.102 25.8098L103.113 25.4745L103.04 23.2772L99.8705 23.3624L99.5658 23.1882L99.5983 18.8283C100.153 18.5812 103.232 18.6638 103.77 18.7146L103.765 16.5202C102.369 16.0657 99.0224 16.5559 97.2214 16.2531C97.3279 19.1005 96.9861 31.8817 97.3206 33.2893L99.5258 33.208L99.8553 33.2276V33.2275ZM138.197 25.3186C138.249 25.3523 138.308 25.4167 138.341 25.4359L136.021 25.436C135.842 25.0238 135.565 19.4383 136.312 18.6715C136.344 18.6719 139.438 18.6835 138.542 18.8096C138.794 19.7669 138.628 22.5562 138.656 23.9535C138.69 25.6448 138.827 25.2901 138.197 25.3187L138.197 25.3186ZM133.96 17.1946C133.14 17.7146 133.481 23.8156 133.501 25.1334C133.538 27.7134 133.311 30.7802 133.529 33.2241L135.906 33.3239L135.982 27.9438L138.797 27.8836C139.025 28.9839 138.964 32.0495 138.841 33.2304L141.263 33.2617L141.369 18.2078C141.055 16.6875 139.992 16.1348 138.2 16.1059C136.523 16.0791 134.73 15.8079 133.96 17.1944L133.96 17.1946ZM89.5442 16.3954L89.1875 16.1586C89.1862 16.5769 89.2503 16.5137 89.0171 16.2518L86.9218 16.3284L86.9612 33.2581L89.4713 33.21C89.5544 31.9052 89.2781 25.451 89.5816 24.8608C90.2897 24.4757 91.1576 27.967 91.3824 28.6468C91.8056 29.9259 92.2964 31.5109 92.9517 33.2043L95.0664 33.2747L95.0962 16.232L92.6498 16.3591C92.5541 17.6997 92.9438 23.7656 92.506 24.4077C92.5036 24.41 92.4267 24.9535 91.9735 24.1011L89.4924 16.7928C89.486 16.5705 89.5172 16.4722 89.5443 16.3952L89.5442 16.3954Z" fill="#EDF7E2"/>
<path fill-rule="evenodd" clip-rule="evenodd" d="M92.4763 45.3797C92.2356 44.4889 92.3329 43.3499 92.3327 42.361C92.3324 40.8616 92.1443 40.8435 92.8887 39.8917C93.8057 39.7888 94.0065 39.74 94.6431 40.1344C95.1656 41.0614 95.0639 44.5592 94.6806 45.6114C93.6453 45.7913 93.2287 45.9578 92.4763 45.3797ZM87.7037 43.7113C88.1493 42.5474 88.4752 39.9129 87.5725 38.9909C85.7922 37.6201 84.5957 38.2329 82.2004 38.2074L82.2287 47.3204L84.0951 47.2902L84.1218 44.4706C84.7006 44.5006 85.3962 44.5092 85.9714 44.4485C87.4808 44.2894 87.2148 44.2291 87.7037 43.7112V43.7113ZM130.167 43.0783C129.819 42.2678 127.503 41.6241 126.682 41.2766C126.56 40.3018 126.704 39.8377 127.693 39.7948C128.628 39.7541 128.686 40.03 128.838 40.8816L130.735 41.0002L130.611 40.0209C130.543 39.4592 130.48 39.1017 130.017 38.707C129.141 37.9614 126.58 38.0624 125.722 38.744C124.986 39.2894 124.628 40.626 124.777 41.5103C125.09 43.3727 127.156 43.4326 128.732 44.199C129.081 45.0297 128.951 45.0614 128.473 45.6734C127.007 45.9825 126.677 45.8751 126.428 44.6147L124.66 44.6315L124.724 46.0542C125.174 46.871 125.812 47.4982 127.683 47.4802C128.509 47.4722 129.401 47.3808 129.812 46.8151C130.112 46.7482 129.89 47.0457 130.188 46.5551C130.929 45.9713 130.997 43.6371 130.167 43.0783H130.167ZM95.8913 46.8137C97.1544 45.9222 96.8229 42.3193 96.8053 41.1735C96.77 38.8957 96.2044 38.2345 93.9304 38.1512C93.1101 38.1211 92.0229 38.1459 91.3144 38.5655C89.8374 39.4402 90.4108 45.8024 90.7912 46.2168C91.5773 47.9262 94.851 47.8072 95.8914 46.8137H95.8913ZM113.95 46.0189L114.013 44.3629L112.287 44.3392L112.037 45.5131C111.222 45.9304 110.767 45.7848 110.039 45.5823C109.714 44.696 109.835 42.6711 109.831 41.5058C109.826 39.6177 110.54 39.5486 112.176 40.1033L112.205 41.2442L114.008 41.2665C113.971 40.1879 114.072 39.5214 113.446 38.8849C113.179 37.8298 109.381 37.9909 108.927 38.738C108.59 39.0104 108.758 38.9947 108.448 39.2491C107.624 39.7626 107.767 44.9063 108.088 45.9904C108.392 47.0184 108.962 47.3175 110.221 47.4348C111.953 47.5961 113.136 47.4643 113.95 46.0188L113.95 46.0189ZM105.042 46.0461C105.553 45.4398 105.356 42.598 105.351 41.344C105.344 39.5716 104.862 38.6012 103.262 38.3053L99.3429 38.2659L99.3267 47.2858L103.324 47.2471C104.097 47.1865 104.685 46.8978 105.042 46.046L105.042 46.0461ZM115.875 47.2989L117.664 47.2551L117.774 46.0177L120.593 45.9639L121.069 47.3244L122.904 47.2445L120.552 38.1932L118.04 38.1858L115.875 47.2988L115.875 47.2989ZM134.913 40.0005L134.838 47.2875L136.767 47.306L136.739 39.9756L138.632 39.9154L138.678 38.2777L132.912 38.354L132.94 39.9585L134.913 40.0005H134.913ZM84.1442 39.8991L86.0268 40.1002C86.1989 40.7859 86.2751 41.5818 86.0747 42.361C85.3424 42.9566 85.2011 42.7233 84.0944 42.8011L84.1441 39.8992L84.1442 39.8991ZM119.296 40.5304L120.226 44.2819L118.44 44.2734L119.296 40.5303L119.296 40.5304ZM101.164 39.9772C103.15 39.9541 103.465 39.8533 103.467 41.8542C103.469 45.5861 103.778 45.5441 101.158 45.5945L101.165 42.5298L101.164 39.9773V39.9772Z" fill="#00BEB9"/>
<path fill-rule="evenodd" clip-rule="evenodd" d="M24.4688 44.9839C24.3892 45.206 24.432 45.131 24.2283 45.325C24.1177 45.4302 24.0364 45.4966 23.9369 45.5857C23.2655 46.2119 23.2289 46.1646 21.8772 46.1331C18.6594 46.0583 5.51109 46.284 3.94253 46.0669L3.71559 45.8836C3.38393 45.5617 3.01462 45.4045 2.87323 44.9785C2.23425 44.6334 2.4476 42.8514 2.44907 42.1309C2.45298 40.207 2.3728 26.7217 2.46696 25.8076C2.55418 24.9604 3.25642 24.5726 3.94742 24.018C4.2167 23.802 5.52566 22.7174 5.88754 22.5984C5.92763 22.4347 5.8582 22.5195 6.13668 22.282C6.15017 22.2705 6.17012 22.2548 6.1839 22.2435L6.57981 21.9564C6.71533 21.8576 6.87393 21.7152 6.95625 21.6509L7.39215 21.3253C8.48062 20.4917 7.67512 21.2246 8.93186 20.0265L8.95015 17.1136L18.327 17.0808C18.6358 18.6659 17.8731 19.5712 18.8891 20.5309L23.0291 23.7149C23.1538 23.8137 23.2629 23.9149 23.3512 23.9876C23.7603 24.3243 24.8578 24.8762 24.9373 25.7207C25.0262 26.6646 24.9464 35.293 24.945 36.6873L24.9442 43.2368C24.9459 43.8663 25.0183 44.7294 24.469 44.984L24.4688 44.9839ZM19.1446 16.2016L12.102 16.1915L10.5952 16.1838L9.31877 16.1894C8.95054 16.2049 8.58104 16.1956 8.21212 16.1996L7.30816 16.1432C7.28811 16.135 7.26181 16.1144 7.24607 16.1068C7.11925 16.0448 6.71093 14.0051 7.45571 13.8178L10.4595 13.8008L14.6009 13.8071L19.9023 13.8177C20.5265 13.9566 20.3002 15.6106 20.2391 16.0799C19.95 16.3061 20.2913 16.1728 19.8395 16.2036C19.6457 16.2168 19.3535 16.1977 19.1446 16.2015V16.2016ZM16.026 12.8798L9.33549 12.8974C9.23322 12.6266 9.20115 12.3621 9.15861 12.1803L8.84289 9.83647C8.84592 9.81505 8.85345 9.78408 8.85697 9.7576L16.6882 9.72186H18.3284C18.8436 10.3637 18.1725 12.026 18.2044 12.8866L16.026 12.8798ZM19.5927 19.6761C19.4061 19.5284 19.4568 17.4392 19.5346 17.0897C19.8746 17.0757 20.2424 17.114 20.5673 17.0101C21.0102 16.8685 20.9002 16.7178 21.1277 16.5282C21.1916 15.8914 21.2397 14.4412 21.1619 13.8195C21.1307 13.5707 21.0646 13.4635 20.9755 13.3532L20.8147 13.187C20.748 13.1281 20.7339 13.1005 20.6099 13.0412C20.3113 12.8981 19.6293 12.92 19.2537 12.9128C19.3827 12.0957 19.4438 11.4386 19.4999 10.6446C19.6711 8.22492 19.5002 8.81768 13.7637 8.82118C12.149 8.82216 10.3084 8.73841 8.72262 8.82031C7.81328 8.86724 7.81123 9.64785 7.86608 10.4917C7.91644 11.2662 7.9621 12.1746 8.09498 12.9258C6.29195 12.9499 6.10852 12.9867 6.11233 14.8273C6.11673 16.9948 5.99754 16.9232 7.81797 17.0932C7.92797 17.4809 7.9399 19.506 7.74337 19.8004C7.62809 19.9731 7.15836 20.2349 6.91313 20.4283C6.60034 20.675 6.32695 20.8809 6.05415 21.1024L2.3333 24.032C2.01816 24.2714 2.18399 24.1838 1.95822 24.4192C0.997063 25.4211 1.32902 26.1149 1.3341 28.3516L1.36197 44.5996C1.51069 45.4778 2.18487 45.8265 2.64199 46.3283C3.68049 47.4684 4.08294 47.1526 6.3335 47.1544L18.2049 47.1548C19.2959 47.1535 23.3054 47.3619 23.9899 46.9548L25.5605 45.5461C26.2012 44.7051 26.0665 44.2572 26.0656 43.0666C26.0642 41.0673 26.1779 25.8578 25.9915 25.2653C25.675 24.2591 24.5311 23.7559 23.7666 23.071L20.2309 20.3065C20.2185 20.2955 20.2006 20.2776 20.1881 20.2667L19.9985 20.1182C19.6148 19.8625 19.766 20.1706 19.5928 19.676L19.5927 19.6761Z" fill="#000F16"/>
<path fill-rule="evenodd" clip-rule="evenodd" d="M21.1276 16.5279C21.3741 16.6092 21.2402 16.4461 21.2086 16.6696C21.123 17.273 20.1303 17.3093 19.5716 17.1428C19.641 17.6058 19.6164 18.0946 19.6066 18.5697C19.6017 18.8075 19.5898 19.0218 19.6234 19.2586C19.6834 19.6822 19.8751 19.6752 19.5926 19.6759C19.7658 20.1705 19.6146 19.8623 19.9983 20.1181L20.1879 20.2666C20.2004 20.2775 20.2183 20.2953 20.2307 20.3064L23.7663 23.0709C24.5309 23.7557 25.6748 24.2588 25.9913 25.2652C26.1776 25.8576 26.0639 41.0672 26.0654 43.0665C26.0663 44.2571 26.201 44.705 25.5603 45.546L23.9897 46.9547C23.305 47.3618 19.2956 47.1534 18.2046 47.1546L6.33326 47.1542C4.0827 47.1524 3.68025 47.4683 2.64174 46.3282C2.18453 45.8263 1.51045 45.4776 1.36173 44.5995L1.33386 28.3515C1.32878 26.1148 0.996918 25.421 1.95798 24.419C2.18375 24.1838 2.01792 24.2714 2.33306 24.0318L6.05391 21.1022C6.32671 20.8808 6.6002 20.6748 6.91289 20.4282C7.15812 20.2348 7.62785 19.973 7.74313 19.8003C7.93966 19.5059 7.92764 17.4807 7.81773 17.0931C5.9973 16.9231 6.11649 16.9947 6.11209 14.8272C6.10828 12.9866 6.29171 12.9498 8.09474 12.9257C7.96186 12.1745 7.91619 11.2662 7.86584 10.4915C7.81108 9.64773 7.81304 8.86713 8.72238 8.82019C10.3081 8.73829 12.1487 8.82204 13.7634 8.82106C19.5 8.81756 19.6709 8.2248 19.4997 10.6445C19.4436 11.4385 19.3825 12.0956 19.2535 12.9127C19.6291 12.9199 20.3111 12.898 20.6097 13.0411C20.7336 13.1005 20.7476 13.1281 20.8144 13.1868L20.9753 13.3531C21.0642 13.4634 21.1304 13.5706 21.1616 13.8194C21.2396 14.4411 21.1914 15.8913 21.1275 16.5281L21.1276 16.5279ZM6.1202 12.4944L6.2434 12.5733C5.78688 12.6257 5.85112 12.6145 5.74542 13.0288L5.70034 12.9064C5.07212 13.2613 5.22074 15.3543 5.2621 16.1058C5.32712 17.2878 5.95946 17.7938 7.06318 17.885L7.06063 19.2716L4.89768 20.9631C4.73038 21.1037 4.76451 21.0746 4.60992 21.1868L2.41724 22.9147C2.16664 23.0986 2.41099 22.9202 2.14591 23.1435C1.99543 23.2703 1.79655 23.4507 1.63639 23.5816C0.166292 24.7829 0.543227 25.7047 0.54352 28.2663C0.544107 33.425 0.564934 38.5887 0.543031 43.7469C0.540489 44.3428 0.479964 44.9404 0.750712 45.4683C0.990562 45.9359 1.76545 46.7436 2.15833 47.0559C2.34724 47.206 2.48931 47.3306 2.66932 47.4884C3.06004 47.8309 3.34506 47.9361 4.02931 47.9515C8.82182 48.0588 14.6468 47.9534 19.571 47.9565C20.8445 47.9572 22.2118 48.0028 23.4736 47.9545C24.3607 47.9205 25.2573 47.1176 25.7824 46.4408C25.8866 46.2242 25.9864 46.126 26.2098 46.0247C26.5344 45.8952 26.6779 45.4918 26.7836 45.1383C27.0183 44.3531 26.8848 31.1522 26.8862 29.5422C26.8872 28.5199 27.1678 24.7873 26.3798 24.3166C26.2496 24.2276 26.2824 24.2481 26.1879 24.1346C26.1151 24.047 26.1781 24.0718 26.0456 23.9493C25.7988 23.7211 25.8553 23.9531 25.6947 23.6139L23.0376 21.4097C22.8377 21.2524 22.5512 21.0427 22.3136 20.8538C22.0861 20.6729 21.8943 20.5087 21.6506 20.3234C21.4969 20.2064 21.4554 20.1588 21.3179 20.0597C20.026 19.1285 20.303 19.5522 20.2955 17.9176C20.7129 17.8185 21.0469 17.8437 21.241 17.4981L21.1332 17.4566C21.5099 17.3548 21.5078 17.3475 21.6114 16.9548L21.6529 17.0761C22.2118 16.7493 22.06 14.5817 22.0108 13.8872C21.9373 12.8492 21.2659 12.1472 20.2342 12.1244C20.3624 11.45 20.4153 10.267 20.3972 9.55882C20.376 8.72398 19.9061 8.23035 19.1944 8.05098C18.4706 7.86849 14.7815 7.99742 13.7635 7.99956C7.33011 8.01339 6.67343 7.10122 7.12644 12.0435C6.8156 12.2675 6.37218 12.0668 6.1202 12.4946V12.4944Z" fill="#00BEB9"/>
<path fill-rule="evenodd" clip-rule="evenodd" d="M18.4244 34.684L18.779 34.9344C18.8538 35.0002 18.9421 35.0874 19.0205 35.2009C19.3459 35.6716 19.4488 36.1635 19.3005 36.7463C19.2736 36.8521 19.2126 37.0386 19.1621 37.122C19.0069 37.3781 19.1298 37.2214 18.9546 37.3298C18.6355 38.0219 17.3739 38.3849 16.5 37.878C16.2216 37.7164 14.974 36.5085 14.8305 36.2185C15.0239 35.8699 15.883 35.0536 16.2099 34.776C16.7267 34.3375 17.715 34.3362 18.4244 34.684ZM12.6632 36.3041C12.5077 36.3909 11.7829 37.1171 11.6254 37.2783C11.2978 37.6137 11.0571 38.0112 10.4165 38.1149C9.15436 38.3192 8.13913 37.4692 8.19867 36.2632C8.2899 34.4166 10.3177 33.8209 11.7311 35.1428C11.9934 35.3882 12.5656 35.9992 12.6633 36.304L12.6632 36.3041ZM18.415 39.5773C19.4199 39.179 19.5835 39.0672 20.1945 38.4181C21.0535 37.5053 21.2045 35.3863 20.214 34.1866C19.961 33.8803 19.7855 33.811 19.5579 33.5598C18.4289 32.6834 16.3261 32.4103 14.8905 33.8907L13.7838 34.9666C12.7559 34.3523 12.1132 32.5637 9.62115 32.9112C6.46008 33.3519 5.94841 36.8782 7.46348 38.6227C8.53053 39.8513 10.834 40.0946 12.0965 39.0199C12.4586 38.7117 13.4733 37.6174 13.7638 37.4493C15.1232 38.3311 15.3538 40.1481 18.4151 39.5775L18.415 39.5773Z" fill="#000F16"/>
<path fill-rule="evenodd" clip-rule="evenodd" d="M8.93137 20.0265C9.08821 20.2 9.04841 18.9142 9.0489 18.8251C9.05164 18.2388 9.0666 17.7089 8.99737 17.1467C9.99676 17.2991 15.9064 17.1335 17.5631 17.1639C17.4072 17.7113 17.4908 18.4587 17.4893 19.0813C17.487 20.0487 17.468 19.902 17.7876 20.7496L23.3148 25.1359C23.5869 25.372 23.9523 25.5659 24.0068 25.8848L23.9986 42.216C23.9938 43.058 24.1061 44.0163 23.6869 44.6982L22.3433 45.9848C21.8847 46.1326 16.9794 45.993 15.9663 46.0409C14.4185 46.1425 12.6874 46.031 11.1156 46.0489C10.1182 46.0602 7.00504 46.1654 6.23083 45.9918C5.85282 45.9307 5.44059 45.9579 5.04987 45.959C4.85617 45.9595 4.66677 45.9522 4.47699 45.9493C4.03161 45.9424 4.09809 45.9511 3.94214 46.067C5.5107 46.284 18.659 46.0583 21.8768 46.1332C23.2285 46.1647 23.2651 46.212 23.9365 45.5858C24.1377 45.4187 24.4272 45.0664 24.4685 44.984C25.0178 44.7294 24.9453 43.8662 24.9437 43.2368L24.9445 36.6873C24.9459 35.293 25.0257 26.6645 24.9368 25.7207C24.8573 24.8761 23.7598 24.3243 23.3507 23.9875C23.2624 23.9148 23.1533 23.8136 23.0286 23.7149L18.8886 20.5309C17.8726 19.5712 18.6353 18.6659 18.3265 17.0808L8.94966 17.1136L8.93137 20.0265Z" fill="#00BEB9"/>
<path fill-rule="evenodd" clip-rule="evenodd" d="M4.49999 34.7929C4.19815 33.3541 5.02164 33.7926 5.33248 33.8899C5.40874 34.3398 5.38254 34.4146 5.28975 34.8154C4.86637 34.8787 4.90333 34.9053 4.49999 34.7929ZM5.65104 44.9211L5.6353 30.4478C5.24536 30.2777 4.93032 30.238 4.51564 29.9889C3.81261 29.5666 4.04229 29.8976 3.60522 29.292L3.60659 42.5565C3.60562 43.3841 3.62341 43.8508 4.07427 44.3004C4.53324 44.7582 4.81103 44.9761 5.65114 44.921L5.65104 44.9211Z" fill="#92FE32"/>
<path fill-rule="evenodd" clip-rule="evenodd" d="M21.0439 39.153C21.7079 38.6906 22.0444 39.8589 21.574 40.1368C21.2133 40.35 20.907 40.1515 20.8151 39.8636C20.7757 39.7401 20.7655 39.5776 20.8006 39.4494C20.8884 39.1286 20.8909 39.2595 21.0438 39.153H21.0439ZM18.9541 37.3298C19.1294 37.2214 19.0064 37.3781 19.1616 37.122C19.2122 37.0385 19.2732 36.8521 19.3001 36.7463C19.4484 36.1635 19.3455 35.6716 19.02 35.2009C18.9416 35.0874 18.8533 35.0002 18.7785 34.9343L18.424 34.684C17.7146 34.3361 16.7262 34.3375 16.2095 34.776C15.8825 35.0535 15.0234 35.8699 14.83 36.2185C14.9735 36.5085 16.221 37.7164 16.4996 37.878C17.3734 38.3848 18.6352 38.0219 18.9541 37.3298ZM12.6628 36.3042C12.5651 35.9994 11.9929 35.3882 11.7306 35.1429C10.3172 33.8211 8.28935 34.4168 8.19812 36.2634C8.13857 37.4693 9.1538 38.3194 10.4159 38.1151C11.0567 38.0114 11.2972 37.6139 11.6249 37.2785C11.7824 37.1172 12.5071 36.3911 12.6627 36.3043L12.6628 36.3042ZM9.47383 42.3182C10.7085 42.2725 10.5984 43.5676 9.86172 43.7642C9.58188 43.839 9.45819 43.7431 9.16837 43.656C8.9689 42.714 8.94485 42.9696 9.47383 42.3182ZM6.95272 40.5344C7.3451 40.4736 7.66445 40.4593 7.8602 40.7824C8.35906 41.6054 7.19795 42.4242 6.84379 41.6264C6.67571 41.2478 6.87058 40.801 6.95272 40.5344ZM5.651 44.9212L16.9479 44.9211C17.9429 44.9714 20.9673 45.0153 21.7751 44.771L22.0194 44.6039C22.3498 44.5208 22.0233 44.7058 22.3701 44.4046C22.6047 44.2008 22.7943 43.8588 22.8996 43.5021C23.1541 42.6406 22.949 31.9502 23.0077 30.4904L22.339 30.6834L21.7918 30.8236C21.1999 31.0899 18.283 31.436 17.2561 31.5227C16.2097 31.5232 15.0978 31.6504 13.9415 31.6357C13.6157 31.6444 11.9731 31.6352 11.884 31.6084C10.6438 31.5037 9.62109 31.4232 8.48764 31.2283C7.60861 31.0772 6.09726 30.8166 5.63525 30.448L5.651 44.9213V44.9212ZM16.2389 42.3113C16.1131 42.4075 15.7594 42.7788 15.3262 42.3672C15.0587 42.1131 15.1376 41.7118 15.2158 41.4509C15.5245 41.3435 15.7746 41.2464 16.159 41.4448C16.1635 41.4646 16.1827 41.4866 16.1888 41.498C16.3644 41.8295 16.41 41.9558 16.2389 42.3112V42.3113ZM18.4147 39.5773C15.3534 40.1479 15.1228 38.331 13.7634 37.4491C13.4729 37.6172 12.4581 38.7114 12.096 39.0196C10.8335 40.0943 8.53008 39.8511 7.46302 38.6224C5.94795 36.878 6.45962 33.3518 9.62069 32.911C12.1128 32.5635 12.7554 34.3521 13.7833 34.9664L14.8901 33.8905C16.3256 32.4099 18.4285 32.6832 19.5574 33.5596C19.785 33.8108 19.9606 33.8801 20.2135 34.1864C21.2042 35.3861 21.053 37.5051 20.194 38.4178C19.583 39.0671 19.4194 39.1788 18.4146 39.5771L18.4147 39.5773ZM19.3624 42.5315C19.2528 42.8806 19.2481 42.809 18.8548 42.8896C18.1692 42.847 18.021 41.9892 18.4617 41.618C19.0269 41.142 19.6004 41.7769 19.3624 42.5315ZM20.8845 31.9167C20.9943 31.9786 21.1205 32.0701 21.1728 32.2173C21.2349 32.3923 21.221 32.3477 21.1908 32.5051C21.1558 32.6877 21.1722 32.6142 21.0853 32.7095C20.985 33.0221 20.9643 32.9198 20.6081 33.0303L20.2565 32.7974C20.1426 32.3082 20.1978 32.2442 20.4235 31.9236L20.8845 31.9168V31.9167Z" fill="url(#paint0_linear_22901_630)"/>
<path fill-rule="evenodd" clip-rule="evenodd" d="M10.7605 10.6219L11.7942 10.6238L11.7688 11.6285C11.3909 11.6319 11.1309 11.5877 10.7801 11.707L10.7605 10.6218V10.6219ZM16.026 12.8796C15.8697 12.4319 15.9826 12.3185 15.914 11.9264L15.9523 10.845L16.667 10.8687C16.568 10.3657 16.5855 10.1493 16.6881 9.72168L8.85685 9.75742C8.85333 9.78391 8.84571 9.81487 8.84277 9.8363L9.1585 12.1802C9.20103 12.362 9.2331 12.6265 9.33538 12.8973L16.0259 12.8796H16.026Z" fill="#567966"/>
<path fill-rule="evenodd" clip-rule="evenodd" d="M16.948 44.921L5.65112 44.9211L6.23114 45.9917C7.00545 46.1652 10.1185 46.0601 11.1159 46.0488C12.6877 46.0309 14.4188 46.1425 15.9666 46.0408C16.3241 45.838 21.0277 45.9258 21.4394 45.9161C21.3023 45.6603 21.3644 45.9533 21.1257 45.5156C20.7686 44.861 21.5421 45.1268 21.7754 44.7708C20.9676 45.0151 17.9432 44.9712 16.9482 44.9209L16.948 44.921Z" fill="#008685"/>
<path fill-rule="evenodd" clip-rule="evenodd" d="M16.6668 10.8687L16.99 10.9146L16.999 11.8784L15.9138 11.9264C15.9825 12.3186 15.8695 12.4319 16.0258 12.8796L18.2042 12.8865C18.1723 12.0258 18.8434 10.3635 18.3283 9.72168H16.688C16.5854 10.1492 16.5679 10.3657 16.6669 10.8687H16.6668Z" fill="#3D5544"/>
<path fill-rule="evenodd" clip-rule="evenodd" d="M10.5949 16.1838L12.1018 16.1916L12.062 16.0185L12.0239 14.5532L15.7531 14.5238C15.581 14.3732 15.527 14.3882 15.1259 14.3763L14.6405 14.3169C14.6729 13.9646 14.5389 14.106 14.8736 14.0764C14.8794 14.0869 14.8774 14.1077 14.8776 14.112L14.8736 14.3257L15.7037 13.9711C15.5224 13.897 15.3716 13.9207 15.1294 13.9137C15.039 13.9111 14.8783 13.9073 14.7938 13.8905C14.6292 13.8577 14.6825 13.8573 14.6007 13.807L10.4592 13.8008V13.8859C10.6009 14.0487 10.5049 13.8144 10.5671 14.0845L10.5764 14.9972C10.575 15.3956 10.5568 15.8035 10.5948 16.1836L10.5949 16.1838Z" fill="#01D898"/>
<path fill-rule="evenodd" clip-rule="evenodd" d="M3.60986 28.4427C4.21619 28.1283 4.80745 27.957 5.64346 27.8149L5.65128 25.91C6.10595 25.7248 5.93767 25.6977 6.52395 25.3113C6.5393 25.3011 6.56013 25.2871 6.57538 25.2769L9.36685 23.1759C9.63819 23.0466 9.69949 23.0122 9.88038 22.3975C9.71005 22.0892 9.40714 21.6744 9.11488 21.6332C8.94347 21.6091 8.42055 22.0909 8.30136 22.1941L7.69651 22.6475C7.58592 22.7319 7.59403 22.715 7.4942 22.7861L6.91976 23.241C6.81787 23.3109 6.7989 23.3111 6.71149 23.3721L5.75952 24.1313C5.40351 24.4451 5.55145 24.3931 5.14929 24.484C5.10353 24.8362 5.15564 24.6057 4.95725 24.7768L4.84764 24.8513L3.8548 25.6358C3.69356 25.7962 3.6877 25.7867 3.65279 26.0007C3.58395 26.4231 3.58532 27.9829 3.60977 28.4428L3.60986 28.4427Z" fill="#09E7D7"/>
<path fill-rule="evenodd" clip-rule="evenodd" d="M9.3187 16.1893L9.32662 13.8889L10.4595 13.8859V13.8008L7.45573 13.8177C6.71095 14.005 7.11918 16.0447 7.24609 16.1068C7.26174 16.1145 7.28804 16.1349 7.30818 16.1432L8.21214 16.1996C8.58096 16.1956 8.95056 16.2048 9.3188 16.1893H9.3187Z" fill="#00BEB9"/>
<path fill-rule="evenodd" clip-rule="evenodd" d="M15.7531 14.5239L19.2261 14.5017L19.157 16.0186L19.1443 16.2016C19.3532 16.1979 19.6454 16.217 19.8392 16.2038C20.291 16.173 19.9498 16.3062 20.2389 16.0801C20.0001 15.7025 20.2935 14.8445 20.0706 14.0618C19.6245 13.8563 16.3022 13.8409 15.7037 13.9712L14.8737 14.3258L14.8777 14.1121C14.8775 14.1079 14.8794 14.087 14.8737 14.0765C14.5389 14.1061 14.6728 13.9647 14.6406 14.317L15.1259 14.3764C15.527 14.3883 15.581 14.3732 15.7532 14.524L15.7531 14.5239Z" fill="#00BEB9"/>
<path fill-rule="evenodd" clip-rule="evenodd" d="M3.60992 28.4426L3.60522 29.292C4.04239 29.8976 3.81271 29.5666 4.51564 29.9889C4.93032 30.238 5.24536 30.2777 5.6353 30.4478L5.64341 27.8147C4.80741 27.9568 4.21624 28.1281 3.60982 28.4425L3.60992 28.4426Z" fill="#C8FA96"/>
<path fill-rule="evenodd" clip-rule="evenodd" d="M9.3186 16.1896L10.595 16.1839C10.557 15.8039 10.5752 15.3959 10.5765 14.9975L10.5672 14.0848C10.505 13.8148 10.6011 14.0491 10.4594 13.8862L9.32652 13.8892L9.3186 16.1897V16.1896Z" fill="#9CF9DA"/>
<path fill-rule="evenodd" clip-rule="evenodd" d="M14.4913 6.1507L15.8721 6.1361L15.8528 4.46631L14.4526 4.49367L14.4913 6.1507Z" fill="#64D41C"/>
<path fill-rule="evenodd" clip-rule="evenodd" d="M9.93103 20.1713L10.8123 20.1441C10.7226 19.5909 10.7117 18.3994 10.8177 17.8232L9.91089 17.9309L9.93093 20.1712L9.93103 20.1713Z" fill="#09E7D7"/>
<path fill-rule="evenodd" clip-rule="evenodd" d="M9.47406 42.3181C8.94508 42.9695 8.96913 42.7139 9.1686 43.6559C9.45841 43.743 9.5821 43.8388 9.86194 43.7641C10.5986 43.5674 10.7087 42.2723 9.47406 42.3181Z" fill="#79F93B"/>
<path fill-rule="evenodd" clip-rule="evenodd" d="M6.95279 40.5343C6.87066 40.8009 6.67579 41.2478 6.84387 41.6263C7.19802 42.4241 8.35914 41.6054 7.86027 40.7823C7.66442 40.4592 7.34508 40.4735 6.95279 40.5343Z" fill="#CAFD33"/>
<path fill-rule="evenodd" clip-rule="evenodd" d="M19.5177 26.1255C20.1491 25.973 20.3821 25.3209 19.9673 24.8197L19.7516 24.6189C19.4944 24.4664 19.2172 24.4546 19.0091 24.6298C18.7857 24.6855 18.7097 24.7336 18.6148 24.9348C18.5237 25.128 18.502 25.3849 18.559 25.6111C18.6759 26.0746 19.1856 26.1828 19.5176 26.1255H19.5177Z" fill="#56EC47"/>
<path fill-rule="evenodd" clip-rule="evenodd" d="M15.0442 24.4087C14.3978 24.3161 13.857 24.4144 13.8421 25.1228C13.828 25.7928 14.2909 25.9323 14.8856 25.9073C15.2001 25.7004 15.3785 25.6592 15.4208 25.1864C15.4515 24.8435 15.3626 24.7818 15.1404 24.5228C15.057 24.4255 15.1317 24.5001 15.0442 24.4087Z" fill="#79F93B"/>
<path fill-rule="evenodd" clip-rule="evenodd" d="M16.2392 42.3115C16.4102 41.956 16.3646 41.8296 16.189 41.4983C16.1829 41.4868 16.1637 41.4649 16.1593 41.4451C15.7748 41.2466 15.5248 41.3438 15.216 41.4511C15.1379 41.712 15.059 42.1134 15.3264 42.3675C15.7597 42.7792 16.1134 42.4078 16.2392 42.3116V42.3115Z" fill="#05BC4C"/>
<path fill-rule="evenodd" clip-rule="evenodd" d="M10.5244 3.36017L11.663 3.38841L11.6728 2.34741L10.5239 2.38714L10.5244 3.36017Z" fill="#64D41C"/>
<path fill-rule="evenodd" clip-rule="evenodd" d="M15.9138 11.9265L16.999 11.8784L16.9901 10.9146L16.6668 10.8687L15.9521 10.845L15.9138 11.9265Z" fill="#0D2D1A"/>
<path fill-rule="evenodd" clip-rule="evenodd" d="M16.5866 1.03477L17.5965 1.03876L17.6096 0L16.5588 0.00311619L16.5866 1.03477Z" fill="#4FB016"/>
<path fill-rule="evenodd" clip-rule="evenodd" d="M18.8546 42.8897C19.2481 42.8092 19.2527 42.8807 19.3623 42.5316C19.2579 42.0066 19.4436 42.0184 19.091 41.6155L18.5467 41.6214C18.4688 41.9741 17.9134 42.3303 18.8545 42.8897H18.8546Z" fill="#CAFD33"/>
<path fill-rule="evenodd" clip-rule="evenodd" d="M21.0442 39.153C20.8912 39.2595 20.8888 39.1286 20.801 39.4494C20.7659 39.5777 20.7761 39.7401 20.8155 39.8636C20.9074 40.1515 21.2137 40.35 21.5744 40.1368C22.0447 39.8588 21.7083 38.6905 21.0443 39.153H21.0442Z" fill="#56EC47"/>
<path fill-rule="evenodd" clip-rule="evenodd" d="M10.9011 31.1204L11.0506 31.2757C11.3297 31.3323 11.8305 31.4995 12.0041 31.1037C12.2899 30.4518 11.0705 29.7204 10.9011 31.1205V31.1204Z" fill="#D3FF46"/>
<path fill-rule="evenodd" clip-rule="evenodd" d="M4.50021 34.7931C4.90355 34.9055 4.86649 34.8789 5.28997 34.8156C5.38276 34.4148 5.40896 34.3401 5.3327 33.8901C5.02186 33.7928 4.19837 33.3543 4.50021 34.7931Z" fill="#CAFD33"/>
<path fill-rule="evenodd" clip-rule="evenodd" d="M12.739 29.2021L12.6343 29.7091C12.8826 29.9864 12.8889 29.9482 13.1656 30.1342C13.48 30.0269 13.5399 29.9314 13.7629 29.7354C13.6888 28.8152 13.4192 28.9638 12.739 29.2022V29.2021Z" fill="#2CD154"/>
<path fill-rule="evenodd" clip-rule="evenodd" d="M15.7039 13.9714C16.3024 13.8411 19.6247 13.8565 20.0707 14.0619C20.2937 14.8446 20.0003 15.7026 20.239 16.0802C20.3001 15.6109 20.5265 13.9569 19.9022 13.818L14.6008 13.8074C14.6825 13.8576 14.6293 13.8581 14.7939 13.8908C14.8785 13.9076 15.0391 13.9115 15.1295 13.9141C15.3717 13.9209 15.5225 13.8973 15.7038 13.9715L15.7039 13.9714Z" fill="#02D4CB"/>
<path fill-rule="evenodd" clip-rule="evenodd" d="M8.01234 29.3865L8.09047 28.8178C7.52775 28.6604 7.89853 28.4708 7.11259 28.6343C7.04962 28.8875 6.91928 29.3847 7.22366 29.5079C7.2394 29.5143 7.26512 29.5267 7.28292 29.5329C7.72722 29.6862 7.88406 29.4604 8.01224 29.3864L8.01234 29.3865Z" fill="#D3FF46"/>
<path fill-rule="evenodd" clip-rule="evenodd" d="M17.4194 22.9927C17.619 22.7414 17.5462 22.3135 17.4859 21.9526L17.3567 21.9927L16.4797 21.9624L16.4981 22.9925L17.4194 22.9926V22.9927Z" fill="#56EC47"/>
<path fill-rule="evenodd" clip-rule="evenodd" d="M9.91113 17.931L10.8179 17.8233C10.7119 18.3995 10.7228 19.5909 10.8125 20.1442L9.93127 20.1713L9.91123 17.9311L9.91113 17.931ZM9.79849 20.2836L10.883 20.2126C10.8899 19.8073 10.8912 19.401 10.8921 18.9953C10.8927 18.7657 10.8967 18.5383 10.8996 18.3091L10.8582 17.7724L9.79468 17.772L9.79849 20.2836Z" fill="#12F8EF"/>
<path fill-rule="evenodd" clip-rule="evenodd" d="M10.8469 11.5474L11.7135 11.5892L11.6894 10.7209L10.851 10.7398L10.8469 11.5474Z" fill="#0D2D1A"/>
<path fill-rule="evenodd" clip-rule="evenodd" d="M12.7759 23.0362C13.0452 22.8604 12.8909 22.4232 12.759 22.3058C12.6466 22.2056 11.9342 22.0745 12.0449 22.2967C11.7932 22.4479 11.7034 22.5299 11.7523 22.8828C11.7969 23.2054 11.8774 23.1038 12.0144 23.3771C12.4375 23.3683 12.7489 23.4049 12.7759 23.0362Z" fill="#79F93B"/>
<path fill-rule="evenodd" clip-rule="evenodd" d="M9.3653 26.0518C10.0138 25.6079 9.15361 24.5806 8.66854 25.245L8.46975 25.3554C8.4719 25.6964 8.39055 26.0997 8.8285 26.2104C9.3083 26.3317 9.36178 26.0555 9.3653 26.0518Z" fill="#56EC47"/>
<path fill-rule="evenodd" clip-rule="evenodd" d="M19.5926 19.6761C19.875 19.6754 19.6834 19.6824 19.6234 19.2588C19.5898 19.022 19.6016 18.8077 19.6065 18.5699C19.6164 18.0948 19.6409 17.606 19.5715 17.143C20.1302 17.3094 21.123 17.2732 21.2085 16.6698C21.2402 16.4463 21.3741 16.6094 21.1276 16.5281C20.9001 16.7177 21.0101 16.8684 20.5671 17.01C20.2422 17.1139 19.8745 17.0756 19.5345 17.0896C19.4567 17.4391 19.406 19.5284 19.5926 19.676V19.6761Z" fill="#02D4CB"/>
<path fill-rule="evenodd" clip-rule="evenodd" d="M21.0854 32.7093C21.1723 32.6141 21.1559 32.6875 21.1909 32.5049C21.2211 32.3475 21.2351 32.3921 21.1729 32.2171C21.1206 32.0699 20.9944 31.9784 20.8846 31.9165L20.4304 32.0984C20.2741 32.7958 20.6629 33.1892 21.0591 32.6892L21.0853 32.7092L21.0854 32.7093Z" fill="#56EC47"/>
<path fill-rule="evenodd" clip-rule="evenodd" d="M14.9807 19.1925C14.8831 19.0034 15.0008 19.0897 14.7773 19.0163C14.7603 19.0108 14.4788 18.998 14.4468 18.9981C14.1938 18.9987 14.121 18.9868 13.9368 19.0661L13.8687 19.1851C13.7634 19.5275 13.8846 18.9714 13.8362 19.3318L13.9118 20.1238C14.1916 20.2846 14.7034 20.2706 14.9747 20.1116C15.0683 19.9189 15.0582 19.8689 15.0541 19.5852C15.0536 19.551 15.0462 19.3677 15.0422 19.3394C15.0147 19.1445 15.0448 19.2296 14.9806 19.1924L14.9807 19.1925Z" fill="#4CF359"/>
<path fill-rule="evenodd" clip-rule="evenodd" d="M12.7389 29.2022C13.4193 28.9638 13.6888 28.8152 13.7629 29.7353C13.5398 29.9314 13.4799 30.0268 13.1655 30.1341C12.8887 29.9481 12.8826 29.9864 12.6342 29.709L12.7389 29.2021V29.2022ZM5.64337 27.8149L5.63525 30.448C6.09726 30.8166 7.60861 31.0772 8.48764 31.2283C9.62118 31.4231 10.6438 31.5037 11.884 31.6084C11.9731 31.6351 13.6157 31.6444 13.9415 31.6356C15.0978 31.6503 16.2098 31.5232 17.2561 31.5227C18.2831 31.4361 21.1999 31.0899 21.7918 30.8236L22.339 30.6833L23.0077 30.4903L23.194 30.4327C23.1078 30.1001 23.1941 29.5484 23.0714 29.3124L22.7313 29.3706C22.4661 29.5524 20.4307 29.7122 19.9124 29.6987C18.8786 29.6719 17.9659 29.549 16.9981 29.3072C16.8693 29.2733 16.3505 29.1311 16.0522 29.046C15.6515 28.9317 15.5246 28.8817 15.1535 28.748C14.5697 28.5377 13.8563 28.2908 13.2446 28.1269L12.1026 27.8522C10.9014 27.6452 10.1547 27.4787 8.89518 27.5052C8.33657 27.517 7.73739 27.5473 7.19834 27.6113C6.77056 27.662 6.06567 27.7987 5.64327 27.8146L5.64337 27.8149ZM11.0506 31.2757L10.9011 31.1204C11.0705 29.7203 12.2898 30.4517 12.004 31.1036C11.8305 31.4994 11.3297 31.3323 11.0506 31.2756V31.2757ZM8.01205 29.3865C7.88386 29.4605 7.72702 29.6863 7.28272 29.533C7.26492 29.5268 7.23921 29.5144 7.22347 29.508C6.91908 29.3848 7.04942 28.8875 7.11239 28.6344C7.89823 28.4709 7.52746 28.6604 8.09027 28.8179L8.01214 29.3866L8.01205 29.3865Z" fill="url(#paint1_linear_22901_630)"/>
<path fill-rule="evenodd" clip-rule="evenodd" d="M16.105 27.5879C16.5827 27.4647 16.6315 27.2149 16.3584 26.8949C15.9418 26.8855 16.0469 26.8477 15.7917 27.0757C15.7467 27.4151 15.7482 27.5253 16.105 27.5878V27.5879Z" fill="#B1FD31"/>
<path fill-rule="evenodd" clip-rule="evenodd" d="M18.8548 42.8897C17.9136 42.3303 18.4689 41.974 18.547 41.6214L19.0912 41.6154C19.4438 42.0184 19.2581 42.0065 19.3625 42.5316C19.6004 41.777 19.027 41.1421 18.4618 41.6181C18.0211 41.9893 18.1692 42.8471 18.8549 42.8897H18.8548Z" fill="#EDFD31"/>
<path fill-rule="evenodd" clip-rule="evenodd" d="M21.8876 27.1933C21.9576 26.417 21.2062 26.4588 21.2666 27.1919C21.553 27.3117 21.6289 27.3055 21.8876 27.1933Z" fill="#B1FD31"/>
<path fill-rule="evenodd" clip-rule="evenodd" d="M18.1328 28.2666C18.2269 28.8009 19.0455 28.7579 19.0534 28.1793C19.0622 27.5381 18.0332 27.7019 18.1328 28.2666Z" fill="#E3FF17"/>
<path fill-rule="evenodd" clip-rule="evenodd" d="M10.851 10.7399L11.6893 10.721L11.7135 11.5893L10.8469 11.5475L10.851 10.7399ZM10.7798 11.7072C11.1307 11.5879 11.3907 11.6321 11.7685 11.6287L11.794 10.624L10.7603 10.6221L10.7798 11.7073V11.7072Z" fill="#000F16"/>
<path fill-rule="evenodd" clip-rule="evenodd" d="M21.0854 32.7094L21.0592 32.6895C20.663 33.1894 20.2742 32.796 20.4305 32.0987L20.8847 31.9167L20.4237 31.9236C20.198 32.2441 20.1428 32.3081 20.2567 32.7974L20.6083 33.0303C20.9645 32.9198 20.9852 33.022 21.0855 32.7094H21.0854Z" fill="#79F93B"/>
<path fill-rule="evenodd" clip-rule="evenodd" d="M3.71541 45.8838C3.61098 45.5079 3.83333 45.8321 3.49159 45.5513C2.67299 44.8784 3.07105 44.6702 2.87305 44.9787C3.01443 45.4047 3.38374 45.5619 3.71541 45.8838Z" fill="#02D4CB"/>
<path fill-rule="evenodd" clip-rule="evenodd" d="M5.70044 12.9066L5.74552 13.029C5.85121 12.6148 5.78697 12.6259 6.2435 12.5735L6.1203 12.4946C5.92396 12.5369 6.04951 12.4012 5.82491 12.6212C5.62359 12.8183 5.73799 12.7394 5.70054 12.9066H5.70044Z" fill="#09E7D7"/>
<path fill-rule="evenodd" clip-rule="evenodd" d="M21.2412 17.4981C21.5369 17.4295 21.5885 17.3757 21.653 17.0762L21.6115 16.9548C21.5079 17.3476 21.5101 17.3549 21.1333 17.4566L21.2412 17.4981Z" fill="#09E7D7"/>
<path fill-rule="evenodd" clip-rule="evenodd" d="M25.7825 46.441C26.0188 46.2967 26.0677 46.2666 26.2099 46.0249C25.9864 46.1262 25.8866 46.2244 25.7825 46.441Z" fill="#09E7D7"/>
<path fill-rule="evenodd" clip-rule="evenodd" d="M23.9369 45.5859C24.0363 45.4969 24.1178 45.4304 24.2282 45.3252C24.432 45.1312 24.3892 45.2061 24.4688 44.9841C24.4274 45.0665 24.138 45.4188 23.9368 45.5859H23.9369Z" fill="#09E7D7"/>
<path fill-rule="evenodd" clip-rule="evenodd" d="M3.60663 42.5567L3.60526 29.2922L3.60995 28.4428C3.58541 27.9829 3.58404 26.4231 3.65297 26.0007C3.68788 25.7866 3.69375 25.7962 3.85498 25.6358L4.84782 24.8513L4.95743 24.7767C5.15582 24.6056 5.10371 24.8361 5.14947 24.484C5.55163 24.3931 5.40359 24.4451 5.7597 24.1313L6.71167 23.3721C6.79899 23.3111 6.81805 23.3109 6.91994 23.241L7.49439 22.7861C7.59422 22.715 7.5861 22.7319 7.69669 22.6475L8.30154 22.1941C8.42083 22.0908 8.94365 21.609 9.11506 21.6332C9.40732 21.6744 9.71024 22.0892 9.88056 22.3975C9.69977 23.0122 9.63847 23.0466 9.36703 23.1759L6.57556 25.2769C6.56031 25.2871 6.53948 25.3011 6.52413 25.3113C5.93785 25.6977 6.10603 25.7248 5.65146 25.91L5.64364 27.8149C6.06604 27.7991 6.77092 27.6624 7.1987 27.6116C7.73776 27.5476 8.33684 27.5172 8.89555 27.5056C10.1551 27.4791 10.9019 27.6455 12.103 27.8525L13.245 28.1272C13.8566 28.2911 14.5701 28.538 15.1538 28.7483C15.525 28.882 15.6518 28.932 16.0525 29.0463C16.3508 29.1314 16.8697 29.2736 16.9984 29.3075C17.9662 29.5494 18.8789 29.6723 19.9128 29.6991C20.431 29.7124 22.4665 29.5527 22.7317 29.371L23.0717 29.3127C23.1944 29.5486 23.1082 30.1005 23.1943 30.433L23.0081 30.4907C22.9494 31.9505 23.1544 42.6409 22.8999 43.5024C22.7946 43.8591 22.605 44.2011 22.3705 44.4049C22.0236 44.7061 22.3501 44.5211 22.0197 44.6043L21.7755 44.7713C21.5422 45.1273 20.7688 44.8614 21.1257 45.5161C21.3644 45.9538 21.3024 45.6608 21.4394 45.9167C21.0278 45.9263 16.3242 45.8387 15.9667 46.0413C16.9797 45.9933 21.8851 46.1329 22.3437 45.9852L23.6872 44.6986C24.1064 44.0168 23.9941 43.0584 23.999 42.2164L24.0072 25.8852C23.9526 25.5663 23.5872 25.3724 23.3152 25.1363L17.788 20.7501C17.4684 19.9025 17.4874 20.0491 17.4897 19.0817C17.4911 18.4591 17.4075 17.7117 17.5635 17.1643C15.9068 17.134 9.99712 17.2997 8.99773 17.1472C9.06695 17.7093 9.05199 18.2392 9.04925 18.8255C9.04886 18.9146 9.08856 20.2005 8.93173 20.0269C7.67508 21.225 8.48048 20.492 7.39201 21.3257L6.95612 21.6513C6.87379 21.7156 6.71519 21.858 6.57967 21.9568L6.18377 22.2439C6.16998 22.2552 6.15003 22.2709 6.13654 22.2824C5.85807 22.5199 5.92749 22.4351 5.8874 22.5988C5.52552 22.7178 4.21657 23.8024 3.94728 24.0184C3.25629 24.573 2.55404 24.9608 2.46682 25.808C2.37276 26.7222 2.45284 40.2074 2.44893 42.1313C2.44746 42.8518 2.23411 44.6338 2.87309 44.9789C3.07119 44.6704 2.67304 44.8787 3.49164 45.5515C3.83327 45.8323 3.61103 45.5082 3.71545 45.884L3.9424 46.0673C4.09835 45.9515 4.03186 45.9428 4.47724 45.9496C4.66713 45.9525 4.85652 45.9598 5.05013 45.9593C5.44085 45.9583 5.85308 45.931 6.23109 45.9921L5.65107 44.9215C4.81096 44.9766 4.53327 44.7587 4.0742 44.3009C3.62335 43.8513 3.60555 43.3846 3.60653 42.557L3.60663 42.5567ZM12.1019 16.1917L19.1445 16.2017L19.1572 16.0186L19.2262 14.5017L15.7532 14.5239L12.024 14.5533L12.0621 16.0186L12.1019 16.1917ZM8.82867 26.2107C8.39072 26.1 8.47217 25.6967 8.46992 25.3557L8.6687 25.2453C9.15378 24.5809 10.0139 25.6082 9.36547 26.0521C9.36195 26.0558 9.30837 26.332 8.82867 26.2107ZM19.5178 26.1255C19.1857 26.1827 18.6761 26.0745 18.5592 25.611C18.5022 25.3848 18.5239 25.128 18.615 24.9348C18.7098 24.7335 18.7858 24.6854 19.0092 24.6297C19.2174 24.4545 19.4945 24.4664 19.7518 24.6189L19.9675 24.8197C20.3822 25.3209 20.1492 25.973 19.5179 26.1255H19.5178ZM19.0536 28.1793C19.0457 28.7578 18.2271 28.8009 18.1329 28.2666C18.0335 27.702 19.0624 27.5381 19.0536 28.1793ZM16.3587 26.8949C16.6317 27.2149 16.583 27.4647 16.1052 27.5879C15.7484 27.5253 15.747 27.4151 15.7919 27.0758C16.0471 26.8477 15.942 26.8856 16.3587 26.895V26.8949ZM14.8856 25.9073C14.2909 25.9324 13.8281 25.7929 13.8421 25.1228C13.8571 24.4145 14.3979 24.3161 15.0442 24.4086C15.1317 24.5001 15.057 24.4254 15.1404 24.5228C15.3626 24.7818 15.4515 24.8435 15.4209 25.1864C15.3785 25.6591 15.2001 25.7004 14.8856 25.9073ZM17.4195 22.9926L16.4982 22.9925L16.4798 21.9624L17.3568 21.9927L17.486 21.9527C17.5463 22.3136 17.6191 22.7414 17.4195 22.9927V22.9926ZM12.7761 23.0362C12.7489 23.4047 12.4376 23.3682 12.0146 23.3771C11.8775 23.1038 11.7971 23.2054 11.7524 22.8828C11.7035 22.5299 11.7933 22.4479 12.045 22.2967C11.9344 22.0743 12.6467 22.2056 12.7592 22.3058C12.891 22.4232 13.0454 22.8604 12.7761 23.0362ZM21.2666 27.1922C21.2061 26.4591 21.9576 26.4173 21.8876 27.1935C21.629 27.3057 21.553 27.312 21.2666 27.1922ZM13.8456 19.2582C13.8637 19.0808 13.7902 19.4173 13.8456 19.2582ZM14.975 20.112C14.7038 20.271 14.1919 20.2851 13.9122 20.1243L13.8366 19.3322C13.8408 19.3011 13.8437 19.2768 13.8456 19.2582C13.8517 19.2405 13.8595 19.2167 13.869 19.1854L13.9371 19.0664C14.1212 18.9872 14.1941 18.999 14.4471 18.9985C14.4792 18.9984 14.7607 19.0111 14.7776 19.0167C15.0011 19.09 14.8834 19.0038 14.9811 19.1928C15.0452 19.2301 15.0151 19.1449 15.0427 19.3399C15.0467 19.368 15.054 19.5514 15.0545 19.5857C15.0586 19.8693 15.0688 19.9193 14.9751 20.112H14.975ZM9.79853 20.2837L9.79472 17.772L10.8582 17.7724L10.8996 18.3092C10.8968 18.5383 10.8929 18.7659 10.8922 18.9953C10.8911 19.401 10.8898 19.8075 10.8831 20.2127L9.79853 20.2837Z" fill="url(#paint2_linear_22901_630)"/>
<defs>
<linearGradient id="paint0_linear_22901_630" x1="5.63516" y1="37.7041" x2="23.0307" y2="37.7041" gradientUnits="userSpaceOnUse">
<stop stop-color="#25E845"/>
<stop offset="1" stop-color="#06BE4F"/>
</linearGradient>
<linearGradient id="paint1_linear_22901_630" x1="5.63525" y1="29.5709" x2="23.1941" y2="29.5709" gradientUnits="userSpaceOnUse">
<stop stop-color="#6FF95A"/>
<stop offset="1" stop-color="#6AF13C"/>
</linearGradient>
<linearGradient id="paint2_linear_22901_630" x1="2.41354" y1="30.2844" x2="24.009" y2="30.2844" gradientUnits="userSpaceOnUse">
<stop stop-color="#07A295"/>
<stop offset="1" stop-color="#00656F"/>
</linearGradient>
</defs>
</svg>
